ni<?xml version="1.0" encoding="UTF-8"?>
<svg version="1.1" viewBox="0 0 1344 992" width="336" height="248" xmlns="http://www.w3.org/2000/svg">
<path transform="translate(71)" d="m0 0h138l52 1 145 2 159 3 236 1 66 1 109 1 202 2 69 1 15 2 14 5 15 9 12 11 8 10 8 16 3 10v78l-1 692-3 16-5 13-9 16-12 14-10 8-13 8-15 6-11 3-19 2h-89l-5-3-3-4-1-4v-50l-4-6-7-3-6 2-7 6-7 8-22 22-13 10-18 12-16 9-20 9-18 6-23 5-7 1-19 1h-31l-26-1-26-4-25-7-22-8-21-10-19-12-16-12-10-9-8-7-7-7-7-8-10-12-12-17-9-15-11-21-10-25-8-26-7-34-4-31-1-17v-54l2-25 5-32 6-26 10-30 9-20 11-21 9-14 13-18 12-14 13-14 8-7 16-13 18-12 16-9 20-9 24-8 28-6 26-3h45l29 3 25 5 20 6 19 8 15 8 17 12 11 10 8 7 11 12 6 7 4 2h6l7-5 1-7-1-22v-168l-128-1-231-2-301-3h-132l-16 4-14 7-10 8-10 10-8 13-5 12-3 12v25l4 15 4 10 9 13 7 8 14 10 16 7 20 4 169 1 15 3 14 6 13 9 12 12 7 11 6 13 3 14 1 51-2 18-4 13-8 15-11 12-8 7-14 8-14 5-11 2-23 1h-133l-21 1-15 4-14 7-10 8-3 3h-2l-2 4-6 7-8 15-4 13-1 5v22l5 17 7 14 11 13 10 8 15 8 12 4 11 2 189 1 16 3 12 5 12 7 12 11 8 10 8 16 3 10 1 6v72l-3 14-5 12-9 13-8 9-14 10-12 5-14 4-6 1h-448l-14-3-12-5-12-7-12-11-9-12-6-12-4-14-2-15v-758l1-23 4-16 8-16 8-10 8-8 13-9 16-7zm908 497-21 3-17 5-16 7-14 9-10 9-12 12-9 13-9 17-6 17-3 11-3 19-1 12v24l3 24 5 21 8 20 9 15 9 11 13 13 14 10 19 9 16 5 15 3 8 1h37l19-3 20-6 17-8 12-8 12-11 8-8 10-14 10-19 6-18 4-20 1-8 1-24-1-19-3-20-6-21-7-16-9-15-9-11-12-12-11-8-14-8-15-6-19-5-17-2z" fill="#FE130B"/>
</svg>
